<svg width="153" height="153" viewBox="0 0 153 153" fill="none" xmlns="http://www.w3.org/2000/svg">
<path d="M131.468 48.0853C131.191 48.291 131.037 48.6233 131.055 48.9681C131.107 49.9865 131.107 51.0051 131.107 52.0234C131.107 88.7186 103.061 131 51.8022 131C38.4277 131 25.8579 127.733 14.8266 121.93C13.361 121.159 14.0749 118.883 15.731 118.883V118.883C25.7511 118.883 35.159 116.291 43.3268 111.694C45.7862 110.31 44.7351 106.495 42.0548 105.611C34.6427 103.167 28.6268 97.7465 25.4384 90.7745C24.8216 89.4258 25.9943 88.0303 27.4739 88.1312C28.1524 88.1774 28.8389 88.203 29.5382 88.203C30.5613 88.203 31.5845 88.1455 32.5958 88.0365C33.6514 87.9227 33.6863 86.4381 32.6907 86.0694C22.0664 82.135 14.5226 71.989 14.5226 60.0156V60.0156C14.5226 59.8614 14.6883 59.7638 14.824 59.837C17.5255 61.2954 20.5371 62.3461 23.7286 62.8596C24.6858 63.0136 25.1378 61.77 24.4014 61.1394C18.4482 56.0404 14.6953 48.4855 14.6953 40.0779C14.6953 35.9571 15.577 32.1106 17.1647 28.6263C17.7432 27.3567 19.4325 27.2218 20.3528 28.2704C32.7112 42.3511 50.0642 51.9509 69.5847 54.5309C72.7946 54.9551 75.274 51.9956 75.274 48.7579V48.7579C75.274 33.4608 87.7005 21 103.147 21C109.986 21 116.261 23.4337 121.117 27.5036C122.691 28.8222 124.741 29.5558 126.73 29.049C130.99 27.9637 135.094 26.3713 138.9 24.3557C139.714 23.9247 140.639 24.6894 140.274 25.5347C138.566 29.4831 135.952 32.957 132.682 35.7073C131.86 36.3984 132.426 37.8753 133.479 37.6664C136.321 37.1028 139.098 36.3114 141.774 35.3398C142.717 34.9974 143.564 36.0681 142.947 36.8594C139.655 41.0824 135.785 44.8829 131.468 48.0853Z" fill="#8B5CF6"/>
</svg>
