<svg width="153" height="153" viewBox="0 0 153 153" fill="none" xmlns="http://www.w3.org/2000/svg">
<g clip-path="url(#clip0_302_116)">
<path fill-rule="evenodd" clip-rule="evenodd" d="M153 0H0V153H153V0ZM117.548 55.9923C117.532 55.6462 117.687 55.313 117.965 55.1065C120.919 52.913 123.593 50.3478 125.909 47.511C126.544 46.7336 125.706 45.6561 124.756 45.9782C123.369 46.4482 121.948 46.8531 120.503 47.1815C119.454 47.4196 118.857 45.9195 119.642 45.185C121.523 43.4239 123.069 41.3256 124.179 38.988C124.574 38.1565 123.66 37.3886 122.838 37.8042C120.386 39.0446 117.779 40.0541 115.079 40.794C113.108 41.3345 111.072 40.5847 109.452 39.3389C105.905 36.6124 101.446 35 96.6104 35C85.0254 35 75.7055 44.289 75.7055 55.6922C75.7055 58.1052 73.8592 60.3126 71.4667 59.9994C57.0626 58.1141 44.2302 51.1636 34.9882 40.9496C34.0554 39.9187 32.3727 40.0553 31.8375 41.3386C30.8274 43.7607 30.2715 46.4053 30.2715 49.2217C30.2715 55.4823 33.08 61.1087 37.5364 64.9096C38.0906 65.3822 37.7519 66.3177 37.0328 66.2022C34.6438 65.8186 32.3895 65.0361 30.3669 63.9507C30.2655 63.8963 30.142 63.9693 30.142 64.0843C30.142 72.6179 35.3137 79.9063 42.7317 83.0933C43.7085 83.513 43.6471 85.0039 42.5856 85.0634C42.1924 85.0855 41.798 85.0968 41.4037 85.0968C41.1547 85.0968 40.9079 85.0925 40.6629 85.0843C39.1799 85.0346 38.013 86.4306 38.6869 87.7526C40.8354 91.9666 44.4055 95.3512 48.7859 97.3013C51.3684 98.4509 52.368 102.363 49.8333 103.614C44.1685 106.411 37.7933 107.967 31.0482 107.967C29.8107 107.967 29.28 109.669 30.3768 110.242C38.6486 114.566 48.0735 117 58.1016 117C96.546 117 117.58 85.4811 117.58 58.1266C117.58 57.4152 117.58 56.7037 117.548 55.9923Z" fill="#8B5CF6"/>
</g>
<defs>
<clipPath id="clip0_302_116">
<rect width="153" height="153" rx="76.5" fill="white"/>
</clipPath>
</defs>
</svg>
